<svg width="90" height="38" viewBox="0 0 90 38" fill="none" xmlns="http://www.w3.org/2000/svg">
<path d="M77 37.5359H34L39.4181 28.2117L60.1352 27.7611L55.5 19.6667L50 10.0621L55.5 0.535853L77 37.5359Z" fill="white"/>
<path d="M55.5 0.535853L77 37.5359H66L55.5 19.6667L45 37.5359H34L55.5 0.535853Z" fill="white"/>
<path d="M21.5 0.535853L43 37.5359H32L21.5 20.0358L11 37.5359H0L21.5 0.535853Z" fill="white"/>
<path d="M84.5 0.535853L88.5 13.0358L84.5 20.0358L74 37.5359H63L84.5 0.535853Z" fill="white"/>
<path d="M62.75 0L68.5 4.48854e-07L89.5429 27.5933L84.0429 37.1195L62.75 0Z" fill="white"/>
<path d="M33.5 0.535853L55 37.5359H44L33.5 20.0358L23 37.5359H12L33.5 0.535853Z" fill="white"/>
</svg>
